<svg xmlns="http://www.w3.org/2000/svg" viewBox="0 0 32 32">
	<rect width="32" height="32" rx="7" fill="#E1E0CC"/>
	<g transform="translate(4 4)" fill="none" stroke="#1A1820" stroke-width="2" stroke-linecap="round" stroke-linejoin="round">
		<path d="M12.127 22H5a2 2 0 0 1-2-2V6a2 2 0 0 1 2-2h14a2 2 0 0 1 2 2v5.125"/>
		<path d="M16 2v4"/>
		<path d="M3 10h18"/>
		<path d="M8 2v4"/>
		<path d="M14.62 18.8A2.25 2.25 0 1 1 18 15.836a2.25 2.25 0 1 1 3.38 2.966l-2.626 2.856a.998.998 0 0 1-1.507 0z" stroke="#6D5BD0" fill="#6D5BD0"/>
	</g>
</svg>
